<svg width="223" height="43" viewBox="0 0 223 43" fill="none" xmlns="http://www.w3.org/2000/svg">
<path d="M0 33.6244V2.25867H9.45876C12.6403 2.25867 15.349 2.72746 17.5847 3.66502C19.8204 4.60258 21.6118 5.85265 22.959 7.41526C24.3348 8.97788 25.3379 10.7252 25.9686 12.6571C26.5993 14.589 26.9145 16.5352 26.9145 18.4955C26.9145 20.8252 26.4845 22.9276 25.6246 24.8028C24.7935 26.6494 23.6469 28.2406 22.1851 29.5758C20.7233 30.8828 19.0322 31.8912 17.1118 32.6016C15.1913 33.2834 13.1563 33.6244 11.0066 33.6244H0ZM6.23418 27.6581H9.9317C11.5082 27.6581 12.9413 27.4591 14.2311 27.0614C15.521 26.6353 16.6245 26.0245 17.5417 25.2289C18.4876 24.4334 19.2042 23.439 19.6914 22.2458C20.2074 21.0241 20.4653 19.632 20.4653 18.0694C20.4653 16.0238 20.1214 14.3617 19.4335 13.0833C18.7742 11.7763 17.943 10.7678 16.9398 10.0575C15.9652 9.3472 14.962 8.86422 13.9302 8.60853C12.8983 8.32441 12.0241 8.18236 11.3075 8.18236H6.23418V27.6581ZM39.6618 34.1358C37.9132 34.1358 36.3225 33.7948 34.8894 33.113C33.4848 32.4026 32.367 31.3231 31.5358 29.8741C30.7044 28.4252 30.289 26.5785 30.289 24.334C30.289 22.2316 30.7189 20.4133 31.5788 18.8791C32.4387 17.3449 33.5708 16.1658 34.9754 15.3419C36.3797 14.4896 37.8703 14.0634 39.4468 14.0634C41.3098 14.0634 42.7144 14.3759 43.6602 15.001C44.6346 15.5976 45.4373 16.2653 46.0679 17.004L45.81 17.7284L46.3689 15.001H51.9582V33.6244H45.939V29.5758L46.4119 30.8543C46.3544 30.8543 46.1824 31.0248 45.896 31.3657C45.6092 31.6781 45.1793 32.0617 44.6061 32.5163C44.0614 32.9425 43.3735 33.3119 42.5424 33.6244C41.7397 33.9653 40.7796 34.1358 39.6618 34.1358ZM41.3815 29.2775C42.0979 29.2775 42.7429 29.1782 43.3163 28.9792C43.8895 28.752 44.3912 28.4393 44.8211 28.0416C45.251 27.6155 45.6235 27.0899 45.939 26.4648V21.9049C45.7095 21.2798 45.3655 20.7542 44.9071 20.328C44.4484 19.8735 43.9037 19.5325 43.2733 19.3053C42.6426 19.0496 41.9405 18.9217 41.1666 18.9217C40.3067 18.9217 39.504 19.149 38.7589 19.6036C38.0422 20.0297 37.4691 20.6264 37.0391 21.3935C36.6092 22.1606 36.3942 23.0413 36.3942 24.0357C36.3942 25.0301 36.6234 25.9249 37.0821 26.7205C37.5405 27.5161 38.1425 28.141 38.8879 28.5956C39.6618 29.0503 40.4929 29.2775 41.3815 29.2775ZM57.7304 15.001H63.7496V33.6244H57.7304V15.001ZM57.6014 8.39544C57.6014 7.51469 57.9454 6.79021 58.6333 6.222C59.3497 5.65379 60.1094 5.36968 60.912 5.36968C61.7144 5.36968 62.4453 5.65379 63.1047 6.222C63.7926 6.79021 64.1366 7.51469 64.1366 8.39544C64.1366 9.27619 63.7926 10.0007 63.1047 10.5689C62.4453 11.1087 61.7144 11.3786 60.912 11.3786C60.1094 11.3786 59.3497 11.1087 58.6333 10.5689C57.9454 10.0007 57.6014 9.27619 57.6014 8.39544ZM69.5187 0H75.5379V33.6244H69.5187V0ZM82.8115 42.5738L95.3228 15.001H100.74L88.6157 42.5738H82.8115ZM87.8418 33.7096L78.641 15.001H85.3911L92.4852 30.7265L87.8418 33.7096ZM104.832 2.25867H111.067V27.6581H125.943V33.6244H104.832V2.25867ZM138.868 34.1358C137.119 34.1358 135.528 33.7948 134.095 33.113C132.691 32.4026 131.573 31.3231 130.742 29.8741C129.911 28.4252 129.495 26.5785 129.495 24.334C129.495 22.2316 129.925 20.4133 130.785 18.8791C131.645 17.3449 132.777 16.1658 134.181 15.3419C135.586 14.4896 137.076 14.0634 138.653 14.0634C140.516 14.0634 141.92 14.3759 142.866 15.001C143.841 15.5976 144.643 16.2653 145.274 17.004L145.016 17.7284L145.575 15.001H151.164V33.6244H145.145V29.5758L145.618 30.8543C145.561 30.8543 145.389 31.0248 145.102 31.3657C144.815 31.6781 144.385 32.0617 143.812 32.5163C143.267 32.9425 142.58 33.3119 141.748 33.6244C140.946 33.9653 139.986 34.1358 138.868 34.1358ZM140.588 29.2775C141.304 29.2775 141.949 29.1782 142.522 28.9792C143.095 28.752 143.597 28.4393 144.027 28.0416C144.457 27.6155 144.83 27.0899 145.145 26.4648V21.9049C144.916 21.2798 144.572 20.7542 144.113 20.328C143.654 19.8735 143.11 19.5325 142.479 19.3053C141.849 19.0496 141.146 18.9217 140.373 18.9217C139.513 18.9217 138.71 19.149 137.965 19.6036C137.248 20.0297 136.675 20.6264 136.245 21.3935C135.815 22.1606 135.6 23.0413 135.6 24.0357C135.6 25.0301 135.829 25.9249 136.288 26.7205C136.747 27.5161 137.349 28.141 138.094 28.5956C138.868 29.0503 139.699 29.2775 140.588 29.2775ZM162.397 15.001L162.87 18.3251L162.784 18.0268C163.443 16.8619 164.374 15.9244 165.578 15.2141C166.782 14.4754 168.258 14.106 170.007 14.106C171.784 14.106 173.26 14.6316 174.435 15.6829C175.639 16.7057 176.255 18.041 176.284 19.6888V33.6244H170.265V21.9049C170.236 21.0809 170.007 20.4275 169.577 19.9445C169.176 19.4331 168.488 19.1774 167.513 19.1774C166.596 19.1774 165.793 19.4757 165.105 20.0723C164.417 20.669 163.887 21.4787 163.515 22.5015C163.142 23.5243 162.956 24.7033 162.956 26.0387V33.6244H156.936V15.001H162.397ZM191.751 43C190.06 43 188.627 42.801 187.452 42.4034C186.305 42.0057 185.331 41.5225 184.528 40.9544C183.726 40.3863 183.009 39.8464 182.378 39.335L185.904 35.2438C186.563 35.8404 187.323 36.4086 188.183 36.9485C189.071 37.5166 190.232 37.8008 191.665 37.8008C192.611 37.8008 193.485 37.6303 194.288 37.2894C195.119 36.977 195.778 36.5082 196.266 35.883C196.781 35.2579 197.039 34.4767 197.039 33.5391V29.448L197.254 30.5134C196.796 31.4794 195.965 32.3318 194.761 33.0704C193.557 33.7807 191.981 34.1358 190.031 34.1358C188.34 34.1358 186.764 33.7096 185.302 32.8573C183.869 31.9765 182.722 30.7976 181.862 29.3201C181.003 27.8144 180.573 26.1098 180.573 24.2061C180.573 22.2458 181.031 20.5127 181.948 19.0069C182.866 17.4727 184.055 16.2653 185.517 15.3845C186.979 14.5038 188.527 14.0634 190.16 14.0634C191.794 14.0634 193.199 14.3049 194.374 14.7879C195.578 15.2425 196.481 15.8107 197.082 16.4926L196.867 17.0466L197.512 15.001H203.059V33.6244C203.059 35.4428 202.543 37.0478 201.511 38.44C200.479 39.8605 199.103 40.9685 197.383 41.7641C195.692 42.5879 193.815 43 191.751 43ZM186.635 24.0357C186.635 25.0301 186.864 25.9249 187.323 26.7205C187.781 27.5161 188.398 28.141 189.171 28.5956C189.974 29.0503 190.863 29.2775 191.837 29.2775C192.669 29.2775 193.399 29.1782 194.03 28.9792C194.689 28.752 195.262 28.4393 195.75 28.0416C196.266 27.6155 196.696 27.0899 197.039 26.4648V21.9049C196.782 21.2798 196.395 20.7542 195.879 20.328C195.363 19.8735 194.761 19.5325 194.073 19.3053C193.414 19.0496 192.669 18.9217 191.837 18.9217C190.863 18.9217 189.974 19.149 189.171 19.6036C188.398 20.0297 187.781 20.6264 187.323 21.3935C186.864 22.1606 186.635 23.0413 186.635 24.0357ZM214.917 34.0079C213.369 34.0079 211.922 33.7381 210.575 33.1982C209.256 32.6583 208.138 31.9056 207.221 30.9395L209.715 27.6581C210.632 28.4819 211.478 29.0785 212.251 29.448C213.054 29.7889 213.771 29.9594 214.401 29.9594C214.889 29.9594 215.319 29.9167 215.691 29.8315C216.092 29.7178 216.408 29.5617 216.637 29.3627C216.866 29.1355 216.981 28.8513 216.981 28.5104C216.981 28.0275 216.78 27.644 216.379 27.3598C216.006 27.0756 215.519 26.8484 214.917 26.6779C214.315 26.4789 213.67 26.2802 212.982 26.0813C211.263 25.5415 210.016 24.7602 209.242 23.7374C208.497 22.6861 208.124 21.5497 208.124 20.328C208.124 19.3905 208.368 18.4529 208.855 17.5154C209.371 16.5494 210.173 15.7539 211.263 15.1288C212.38 14.4754 213.814 14.1487 215.562 14.1487C217.139 14.1487 218.471 14.3049 219.56 14.6174C220.65 14.93 221.682 15.4414 222.656 16.1516L220.377 19.6462C219.833 19.22 219.216 18.8649 218.529 18.5808C217.869 18.2683 217.253 18.0978 216.68 18.0694C216.164 18.041 215.72 18.0978 215.347 18.2398C215.003 18.3819 214.731 18.5666 214.53 18.7939C214.33 19.0211 214.229 19.2626 214.229 19.5183C214.201 20.0582 214.401 20.4843 214.831 20.7968C215.29 21.1093 215.863 21.3508 216.551 21.5213C217.239 21.6918 217.912 21.8907 218.572 22.1179C219.489 22.4021 220.277 22.7856 220.936 23.2686C221.596 23.7516 222.097 24.334 222.441 25.0159C222.814 25.6692 223 26.4648 223 27.4024C223 28.5389 222.699 29.6184 222.097 30.6412C221.524 31.6355 220.635 32.4452 219.431 33.0704C218.256 33.6955 216.752 34.0079 214.917 34.0079Z" fill="white"/>
</svg>
