<svg width="252" height="164" viewBox="0 0 252 164" fill="none" xmlns="http://www.w3.org/2000/svg">
<path d="M0.513255 85.4802L70.8972 14.5714L92.0291 22.0012L102.792 121.44L76.709 112.27L74.6747 85.6396L81.9084 96.3237L32.5201 78.9593L44.7277 75.1105L26.4753 94.6082L0.513255 85.4802ZM72.0625 44.8309L49.1382 70.2842L47.8931 62.2483L80.3759 73.6689L74.7381 79.2848L72.6662 45.0432L72.0625 44.8309ZM111.415 97.743L118.208 78.4224L159.264 92.8574L152.471 112.178L111.415 97.743ZM154.24 139.529L160.948 120.45L219.777 82.7907L217.314 89.7944L176.741 75.5292L184.171 54.3973L249.499 77.3659L242.791 96.445L183.961 134.104L186.424 127.1L228.929 142.045L221.499 163.177L154.24 139.529Z" fill="#AC25FF"/>
</svg>
