<svg width="159" height="124" viewBox="0 0 159 124" fill="none" xmlns="http://www.w3.org/2000/svg">
<path d="M0.249807 75.7964L27.5269 0.962728L53.4862 10.425L48.8013 23.2778L40.0918 20.1031L22.1845 69.2312L30.894 72.4059L26.2091 85.2587L0.249807 75.7964ZM53.2605 79.0259C49.6527 77.7108 46.827 75.9145 44.7834 73.6369C42.7604 71.303 41.5012 68.8004 41.0061 66.1293C40.5314 63.4019 40.7359 60.8261 41.6194 58.4021C42.729 55.3581 44.3557 53.173 46.4994 51.847C48.6637 50.4646 51.6014 49.9388 55.3125 50.2697C59.0235 50.6007 63.754 51.814 69.504 53.9099L73.6473 55.4202L70.7501 63.3686L66.2685 61.7351C64.5774 61.1186 63.068 60.792 61.7403 60.7551C60.469 60.7387 59.4001 60.9558 58.5334 61.4062C57.7437 61.8208 57.1947 62.4509 56.8865 63.2965C56.4961 64.3676 56.544 65.3749 57.0302 66.3185C57.5729 67.2826 58.6052 68.0421 60.1273 68.5968C61.3111 69.0283 62.4746 69.1651 63.6179 69.007C64.8175 68.8696 65.8635 68.4526 66.756 67.7561C67.669 67.0033 68.3516 66.0067 68.8036 64.7666L72.5947 54.3659C73.17 52.7875 73.0634 51.5034 72.2747 50.5134C71.5066 49.4671 69.9951 48.533 67.7402 47.7111C65.4853 46.8891 63.1943 46.3415 60.8673 46.068C58.5402 45.7945 55.931 45.7695 53.0397 45.9928L52.8344 32.8902C55.6388 32.3797 58.9145 32.3284 62.6614 32.7363C66.4083 33.1441 70.0293 33.985 73.5243 35.2589C77.2449 36.6151 80.368 38.2963 82.8936 40.3026C85.4757 42.3294 87.1937 44.7118 88.0476 47.4498L84.4116 46.1245C87.4832 44.8812 90.3492 44.2016 93.0097 44.0857C95.6909 43.9135 98.4971 44.3616 101.428 45.4301C107.517 47.6492 111.617 51.3791 113.73 56.6196C115.92 61.8243 115.731 67.9499 113.163 74.9964L111.93 78.3787L84.7867 68.485L87.6839 60.5366L101.721 65.6529L99.6974 66.7356C100.725 63.917 100.957 61.7027 100.395 60.0926C99.8883 58.5031 98.8459 57.4207 97.2675 56.8454C95.2945 56.1262 93.4848 56.3606 91.8384 57.5486C90.2689 58.7008 88.8574 60.9962 87.604 64.4349L87.2958 65.2805C85.9191 69.0574 85.6862 71.974 86.5971 74.0303C87.508 76.0866 89.5982 77.7106 92.8678 78.9024C95.0099 79.6832 97.1676 80.2462 99.3408 80.5913C101.535 80.88 103.7 80.8074 105.838 80.3733L106.074 93.3913C103.285 94.0351 100.263 94.1788 97.0085 93.8226C93.8306 93.4306 90.6351 92.649 87.4219 91.4778C82.5739 89.7107 78.7849 87.4036 76.0548 84.5565C73.3811 81.7299 71.6689 78.4556 70.9182 74.7334L73.5395 75.6889C71.2103 78.2245 68.3 79.814 64.8086 80.4572C61.3378 81.0441 57.4884 80.5669 53.2605 79.0259ZM105.275 114.078L109.959 101.226L118.669 104.4L136.576 55.272L127.867 52.0974L132.552 39.2446L158.511 48.7068L131.234 123.541L105.275 114.078Z" fill="#AC25FF"/>
</svg>
