<svg width="141" height="141" viewBox="0 0 141 141" fill="none" xmlns="http://www.w3.org/2000/svg">
<path d="M65.9483 3.01179C67.7248 -0.895753 73.2752 -0.895759 75.0517 3.01178L93.9461 44.5715C94.4463 45.6718 95.3282 46.5537 96.4284 47.0539L137.988 65.9483C141.896 67.7248 141.896 73.2752 137.988 75.0517L96.4284 93.9461C95.3282 94.4463 94.4463 95.3282 93.9461 96.4284L75.0517 137.988C73.2752 141.896 67.7248 141.896 65.9483 137.988L47.0539 96.4284C46.5537 95.3282 45.6718 94.4463 44.5716 93.9461L3.01179 75.0517C-0.895753 73.2752 -0.89576 67.7248 3.01178 65.9483L44.5715 47.0539C45.6718 46.5537 46.5537 45.6718 47.0539 44.5716L65.9483 3.01179Z" fill="#FFFD50"/>
</svg>
